2025-12-19T04:55:38.5605109Z Current runner version: '2.329.0'
2025-12-19T04:55:38.5613090Z Runner name: 'LAPTOP-F8336M6U'
2025-12-19T04:55:38.5613742Z Runner group name: 'Default'
2025-12-19T04:55:38.5614440Z Machine name: 'LAPTOP-F8336M6U'
2025-12-19T04:55:38.5617138Z ##[group]GITHUB_TOKEN Permissions
2025-12-19T04:55:38.5619204Z Contents: read
2025-12-19T04:55:38.5619496Z Metadata: read
2025-12-19T04:55:38.5619769Z Packages: read
2025-12-19T04:55:38.5620061Z ##[endgroup]
2025-12-19T04:55:38.5621716Z Secret source: Actions
2025-12-19T04:55:38.5622087Z Prepare workflow directory
2025-12-19T04:55:38.5875696Z Prepare all required actions
2025-12-19T04:55:38.5940465Z Complete job name: watch-news
2025-12-19T04:55:38.6649047Z ##[group]Run $StreamUrl = python -m yt_dlp -f best -g "https://www.youtube.com/@ThanthiTV/live" --no-warnings
2025-12-19T04:55:38.6650216Z [36;1m$StreamUrl = python -m yt_dlp -f best -g "https://www.youtube.com/@ThanthiTV/live" --no-warnings[0m
2025-12-19T04:55:38.6650801Z [36;1mif ($StreamUrl -match "http") {[0m
2025-12-19T04:55:38.6651439Z [36;1m     ffmpeg -i "$StreamUrl" -vf "fps=0.2,scale=854:480,crop=854:120:0:360" -t 60 -q:v 5 screenshot_%04d.jpg[0m
2025-12-19T04:55:38.6651993Z [36;1m}[0m
2025-12-19T04:55:38.6674956Z shell: C:\Windows\System32\WindowsPowerShell\v1.0\powershell.EXE -command ". '{0}'"
2025-12-19T04:55:38.6675656Z ##[endgroup]
2025-12-19T04:55:44.9471930Z ffmpeg version 8.0.1-full_build-www.gyan.dev Copyright (c) 2000-2025 the FFmpeg developers
2025-12-19T04:55:44.9472533Z   built with gcc 15.2.0 (Rev8, Built by MSYS2 project)
2025-12-19T04:55:44.9478888Z   configuration: --enable-gpl --enable-version3 --enable-static --disable-w32threads --disable-autodetect --enable-fontconfig --enable-iconv --enable-gnutls --enable-lcms2 --enable-libxml2 --enable-gmp --enable-bzlib --enable-lzma --enable-libsnappy --enable-zlib --enable-librist --enable-libsrt --enable-libssh --enable-libzmq --enable-avisynth --enable-libbluray --enable-libcaca --enable-libdvdnav --enable-libdvdread --enable-sdl2 --enable-libaribb24 --enable-libaribcaption --enable-libdav1d --enable-libdavs2 --enable-libopenjpeg --enable-libquirc --enable-libuavs3d --enable-libxevd --enable-libzvbi --enable-liboapv --enable-libqrencode --enable-librav1e --enable-libsvtav1 --enable-libvvenc --enable-libwebp --enable-libx264 --enable-libx265 --enable-libxavs2 --enable-libxeve --enable-libxvid --enable-libaom --enable-libjxl --enable-libvpx --enable-mediafoundation --enable-libass --enable-frei0r --enable-libfreetype --enable-libfribidi --enable-libharfbuzz --enable-liblensfun --enable-libvidstab --enable-libvmaf --enable-libzimg --enable-amf --enable-cuda-llvm --enable-cuvid --enable-dxva2 --enable-d3d11va --enable-d3d12va --enable-ffnvcodec --enable-libvpl --enable-nvdec --enable-nvenc --enable-vaapi --enable-libshaderc --enable-vulkan --enable-libplacebo --enable-opencl --enable-libcdio --enable-openal --enable-libgme --enable-libmodplug --enable-libopenmpt --enable-libopencore-amrwb --enable-libmp3lame --enable-libshine --enable-libtheora --enable-libtwolame --enable-libvo-amrwbenc --enable-libcodec2 --enable-libilbc --enable-libgsm --enable-liblc3 --enable-libopencore-amrnb --enable-libopus --enable-libspeex --enable-libvorbis --enable-ladspa --enable-libbs2b --enable-libflite --enable-libmysofa --enable-librubberband --enable-libsoxr --enable-chromaprint --enable-whisper
2025-12-19T04:55:44.9484715Z   libavutil      60.  8.100 / 60.  8.100
2025-12-19T04:55:44.9484937Z   libavcodec     62. 11.100 / 62. 11.100
2025-12-19T04:55:44.9485202Z   libavformat    62.  3.100 / 62.  3.100
2025-12-19T04:55:44.9485425Z   libavdevice    62.  1.100 / 62.  1.100
2025-12-19T04:55:44.9485638Z   libavfilter    11.  4.100 / 11.  4.100
2025-12-19T04:55:44.9485868Z   libswscale      9.  1.100 /  9.  1.100
2025-12-19T04:55:44.9486168Z   libswresample   6.  1.100 /  6.  1.100
2025-12-19T04:55:45.6676597Z [hls @ 00000202b1e87180] Opening 'https://rr6---sn-ci5gup-jwc6.googlevideo.com/videoplayback/id/WhY5UIDpM4c.1/itag/301/source/yt_live_broadcast/expire/1766141742/ei/ztpEaa78Aqbb3LUP3bnluAY/ip/2401:4900:64f2:5a81:94a4:a294:1f3e:3361/requiressl/yes/ratebypass/yes/live/1/sgoap/gir%3Dyes%3Bitag%3D140/sgovp/gir%3Dyes%3Bitag%3D299/rqh/1/hls_chunk_host/rr6---sn-ci5gup-jwc6.googlevideo.com/xpc/EgVo2aDSNQ%3D%3D/playlist_duration/30/manifest_duration/30/bui/AYUSA3B5GwvulvlYQnAfDCpufXGsl-3PJrTIoHuAhTpJwAWLpBm6WIEMo4jBB2Ry7Co3bCwQrp3_LdQQ/spc/wH4Qq5DARJ2swX5o8kJw/vprv/1/playlist_type/DVR/cps/517/initcwndbps/572500/met/1766120143,/mh/rV/mm/44/mn/sn-ci5gup-jwc6/ms/lva/mv/m/mvi/6/pl/44/rms/lva,lva/keepalive/yes/fexp/51552689,51565116,51565681,51580968/mt/1766119706/sparams/expire,ei,ip,id,itag,source,requiressl,ratebypass,live,sgoap,sgovp,rqh,xpc,playlist_duration,manifest_duration,bui,spc,vprv,playlist_type/sig/AJfQdSswRgIhALD8_IMczHkNnuxBVgamcEv3G457Z-pcoAy0P-cBI9RbAiEAn3K9MNtzAt3INJOfn0Akv2yB2Yf3h4UvYyMDDRHBDC0%3D/lsparams/hls_chunk_host,cps,initcwndbps,met,mh,mm,mn,ms,mv,mvi,pl,rms/lsig/APaTxxMwRgIhAKh579PsJxgvSlgPoIokKI2oMszMk0kIXP-mxR1digyoAiEAwAcliYcUjjSyiatF9X3GUZ-Pjt90ZpsAyjAugw3N6CM%3D/playlist/index.m3u8/sq/565/goap/lmt%3D1/govp/lmt%3D1/dur/5.000/file/seg.ts' for reading
2025-12-19T04:55:46.7674829Z     Last message repeated 1 times
2025-12-19T04:55:46.7678548Z Input #0, hls, from 'https://manifest.googlevideo.com/api/manifest/hls_playlist/expire/1766141742/ei/ztpEaa78Aqbb3LUP3bnluAY/ip/2401:4900:64f2:5a81:94a4:a294:1f3e:3361/id/WhY5UIDpM4c.1/itag/301/source/yt_live_broadcast/requiressl/yes/ratebypass/yes/live/1/sgoap/gir%3Dyes%3Bitag%3D140/sgovp/gir%3Dyes%3Bitag%3D299/rqh/1/hls_chunk_host/rr6---sn-ci5gup-jwc6.googlevideo.com/xpc/EgVo2aDSNQ%3D%3D/playlist_duration/30/manifest_duration/30/bui/AYUSA3B5GwvulvlYQnAfDCpufXGsl-3PJrTIoHuAhTpJwAWLpBm6WIEMo4jBB2Ry7Co3bCwQrp3_LdQQ/spc/wH4Qq5DARJ2swX5o8kJw/vprv/1/playlist_type/DVR/cps/517/initcwndbps/572500/met/1766120143,/mh/rV/mm/44/mn/sn-ci5gup-jwc6/ms/lva/mv/m/mvi/6/pl/44/rms/lva,lva/dover/11/pacing/0/keepalive/yes/fexp/51552689,51565116,51565681,51580968/mt/1766119706/sparams/expire,ei,ip,id,itag,source,requiressl,ratebypass,live,sgoap,sgovp,rqh,xpc,playlist_duration,manifest_duration,bui,spc,vprv,playlist_type/sig/AJfQdSswRgIhALD8_IMczHkNnuxBVgamcEv3G457Z-pcoAy0P-cBI9RbAiEAn3K9MNtzAt3INJOfn0Akv2yB2Yf3h4UvYyMDDRHBDC0%3D/lsparams/hls_chunk_host,cps,initcwndbps,met,mh,mm,mn,ms,mv,mvi,pl,rms/lsig/APaTxxMwRgIhAKh579PsJxgvSlgPoIokKI2oMszMk0kIXP-mxR1digyoAiEAwAcliYcUjjSyiatF9X3GUZ-Pjt90ZpsAyjAugw3N6CM%3D/playlist/index.m3u8':
2025-12-19T04:55:46.7682208Z   Duration: N/A, start: 2825.000000, bitrate: N/A
2025-12-19T04:55:46.7682474Z   Program 0 
2025-12-19T04:55:46.7682645Z     Metadata:
2025-12-19T04:55:46.7682808Z       variant_bitrate : 0
2025-12-19T04:55:46.7683112Z   Stream #0:0: Audio: aac (LC) ([15][0][0][0] / 0x000F), 44100 Hz, stereo, fltp, start 2825.009333
2025-12-19T04:55:46.7683375Z     Metadata:
2025-12-19T04:55:46.7683523Z       variant_bitrate : 0
2025-12-19T04:55:46.7683951Z   Stream #0:1: Video: h264 (High) ([27][0][0][0] / 0x001B), yuv420p(tv, bt709), 1920x1080 [SAR 1:1 DAR 16:9], 60 fps, 60 tbr, 90k tbn, start 2825.000000
2025-12-19T04:55:46.7684348Z     Metadata:
2025-12-19T04:55:46.7684528Z       variant_bitrate : 0
2025-12-19T04:55:46.7707236Z Stream mapping:
2025-12-19T04:55:46.7707697Z   Stream #0:1 -> #0:0 (h264 (native) -> mjpeg (native))
2025-12-19T04:55:46.7708022Z Press [q] to stop, [?] for help
2025-12-19T04:55:46.9459416Z Output #0, image2, to 'screenshot_%04d.jpg':
2025-12-19T04:55:46.9466444Z   Metadata:
2025-12-19T04:55:46.9467573Z     encoder         : Lavf62.3.100
2025-12-19T04:55:46.9583678Z   Stream #0:0: Video: mjpeg, yuv420p(pc, bt709, progressive), 854x120 [SAR 1280:1281 DAR 64:9], q=2-31, 200 kb/s, 0.20 fps, 0.20 tbn
2025-12-19T04:55:46.9586782Z     Metadata:
2025-12-19T04:55:46.9587142Z       encoder         : Lavc62.11.100 mjpeg
2025-12-19T04:55:46.9587451Z       variant_bitrate : 0
2025-12-19T04:55:46.9587750Z     Side data:
2025-12-19T04:55:46.9588148Z       cpb: bitrate max/min/avg: 0/0/200000 buffer size: 0 vbv_delay: N/A
2025-12-19T04:55:47.0671742Z [https @ 00000202b255a200] Opening 'https://rr6---sn-ci5gup-jwc6.googlevideo.com/videoplayback/id/WhY5UIDpM4c.1/itag/301/source/yt_live_broadcast/expire/1766141742/ei/ztpEaa78Aqbb3LUP3bnluAY/ip/2401:4900:64f2:5a81:94a4:a294:1f3e:3361/requiressl/yes/ratebypass/yes/live/1/sgoap/gir%3Dyes%3Bitag%3D140/sgovp/gir%3Dyes%3Bitag%3D299/rqh/1/hls_chunk_host/rr6---sn-ci5gup-jwc6.googlevideo.com/xpc/EgVo2aDSNQ%3D%3D/playlist_duration/30/manifest_duration/30/bui/AYUSA3B5GwvulvlYQnAfDCpufXGsl-3PJrTIoHuAhTpJwAWLpBm6WIEMo4jBB2Ry7Co3bCwQrp3_LdQQ/spc/wH4Qq5DARJ2swX5o8kJw/vprv/1/playlist_type/DVR/cps/517/initcwndbps/572500/met/1766120143,/mh/rV/mm/44/mn/sn-ci5gup-jwc6/ms/lva/mv/m/mvi/6/pl/44/rms/lva,lva/keepalive/yes/fexp/51552689,51565116,51565681,51580968/mt/1766119706/sparams/expire,ei,ip,id,itag,source,requiressl,ratebypass,live,sgoap,sgovp,rqh,xpc,playlist_duration,manifest_duration,bui,spc,vprv,playlist_type/sig/AJfQdSswRgIhALD8_IMczHkNnuxBVgamcEv3G457Z-pcoAy0P-cBI9RbAiEAn3K9MNtzAt3INJOfn0Akv2yB2Yf3h4UvYyMDDRHBDC0%3D/lsparams/hls_chunk_host,cps,initcwndbps,met,mh,mm,mn,ms,mv,mvi,pl,rms/lsig/APaTxxMwRgIhAKh579PsJxgvSlgPoIokKI2oMszMk0kIXP-mxR1digyoAiEAwAcliYcUjjSyiatF9X3GUZ-Pjt90ZpsAyjAugw3N6CM%3D/playlist/index.m3u8/sq/567/goap/lmt%3D1/govp/lmt%3D1/dur/5.000/file/seg.ts' for reading
2025-12-19T04:55:47.7968949Z frame=    0 fps=0.0 q=0.0 size=       0KiB time=N/A bitrate=N/A speed=N/A elapsed=0:00:00.51    
2025-12-19T04:55:48.3204857Z frame=    0 fps=0.0 q=0.0 size=       0KiB time=N/A bitrate=N/A speed=N/A elapsed=0:00:01.02    
2025-12-19T04:55:48.8275604Z frame=    0 fps=0.0 q=0.0 size=       0KiB time=N/A bitrate=N/A speed=N/A elapsed=0:00:01.54    
2025-12-19T04:55:49.3393811Z frame=    1 fps=0.5 q=5.0 size=N/A time=00:00:05.00 bitrate=N/A speed=2.43x elapsed=0:00:02.05    
2025-12-19T04:55:49.8552938Z frame=    1 fps=0.4 q=5.0 size=N/A time=00:00:05.00 bitrate=N/A speed=1.95x elapsed=0:00:02.56    
2025-12-19T04:55:50.3770055Z frame=    2 fps=0.6 q=5.0 size=N/A time=00:00:10.00 bitrate=N/A speed=3.24x elapsed=0:00:03.08    
2025-12-19T04:55:50.8902810Z frame=    2 fps=0.6 q=5.0 size=N/A time=00:00:10.00 bitrate=N/A speed=2.77x elapsed=0:00:03.60    
2025-12-19T04:55:51.4051358Z frame=    2 fps=0.5 q=5.0 size=N/A time=00:00:10.00 bitrate=N/A speed=2.43x elapsed=0:00:04.11    
2025-12-19T04:55:51.4062670Z frame=    2 fps=0.4 q=5.0 size=N/A time=00:00:10.00 bitrate=N/A speed=2.16x elapsed=0:00:04.63    
2025-12-19T04:55:51.4091208Z [https @ 00000202b255a200] Opening 'https://rr6---sn-ci5gup-jwc6.googlevideo.com/videoplayback/id/WhY5UIDpM4c.1/itag/301/source/yt_live_broadcast/expire/1766141742/ei/ztpEaa78Aqbb3LUP3bnluAY/ip/2401:4900:64f2:5a81:94a4:a294:1f3e:3361/requiressl/yes/ratebypass/yes/live/1/sgoap/gir%3Dyes%3Bitag%3D140/sgovp/gir%3Dyes%3Bitag%3D299/rqh/1/hls_chunk_host/rr6---sn-ci5gup-jwc6.googlevideo.com/xpc/EgVo2aDSNQ%3D%3D/playlist_duration/30/manifest_duration/30/bui/AYUSA3B5GwvulvlYQnAfDCpufXGsl-3PJrTIoHuAhTpJwAWLpBm6WIEMo4jBB2Ry7Co3bCwQrp3_LdQQ/spc/wH4Qq5DARJ2swX5o8kJw/vprv/1/playlist_type/DVR/cps/517/initcwndbps/572500/met/1766120143,/mh/rV/mm/44/mn/sn-ci5gup-jwc6/ms/lva/mv/m/mvi/6/pl/44/rms/lva,lva/keepalive/yes/fexp/51552689,51565116,51565681,51580968/mt/1766119706/sparams/expire,ei,ip,id,itag,source,requiressl,ratebypass,live,sgoap,sgovp,rqh,xpc,playlist_duration,manifest_duration,bui,spc,vprv,playlist_type/sig/AJfQdSswRgIhALD8_IMczHkNnuxBVgamcEv3G457Z-pcoAy0P-cBI9RbAiEAn3K9MNtzAt3INJOfn0Akv2yB2Yf3h4UvYyMDDRHBDC0%3D/lsparams/hls_chunk_host,cps,initcwndbps,met,mh,mm,mn,ms,mv,mvi,pl,rms/lsig/APaTxxMwRgIhAKh579PsJxgvSlgPoIokKI2oMszMk0kIXP-mxR1digyoAiEAwAcliYcUjjSyiatF9X3GUZ-Pjt90ZpsAyjAugw3N6CM%3D/playlist/index.m3u8/sq/568/goap/lmt%3D1/govp/lmt%3D1/dur/5.000/file/seg.ts' for reading
2025-12-19T04:55:52.4370221Z frame=    2 fps=0.4 q=5.0 size=N/A time=00:00:10.00 bitrate=N/A speed=1.94x elapsed=0:00:05.15    
2025-12-19T04:55:52.9592095Z frame=    3 fps=0.5 q=5.0 size=N/A time=00:00:15.00 bitrate=N/A speed=2.65x elapsed=0:00:05.66    
2025-12-19T04:55:53.4756171Z frame=    3 fps=0.5 q=5.0 size=N/A time=00:00:15.00 bitrate=N/A speed=2.42x elapsed=0:00:06.18    
2025-12-19T04:55:53.9803522Z frame=    3 fps=0.4 q=5.0 size=N/A time=00:00:15.00 bitrate=N/A speed=2.24x elapsed=0:00:06.70    
2025-12-19T04:55:54.5000500Z frame=    3 fps=0.4 q=5.0 size=N/A time=00:00:15.00 bitrate=N/A speed=2.08x elapsed=0:00:07.20    
2025-12-19T04:55:55.0262457Z frame=    3 fps=0.4 q=5.0 size=N/A time=00:00:15.00 bitrate=N/A speed=1.94x elapsed=0:00:07.72    
2025-12-19T04:55:55.5496620Z frame=    3 fps=0.4 q=5.0 size=N/A time=00:00:15.00 bitrate=N/A speed=1.82x elapsed=0:00:08.25    
2025-12-19T04:55:56.0717918Z frame=    3 fps=0.3 q=5.0 size=N/A time=00:00:15.00 bitrate=N/A speed=1.71x elapsed=0:00:08.77    
2025-12-19T04:55:56.5033063Z frame=    3 fps=0.3 q=5.0 size=N/A time=00:00:15.00 bitrate=N/A speed=1.61x elapsed=0:00:09.30    
2025-12-19T04:55:56.5047081Z [https @ 00000202b2c70240] Opening 'https://manifest.googlevideo.com/api/manifest/hls_playlist/expire/1766141742/ei/ztpEaa78Aqbb3LUP3bnluAY/ip/2401:4900:64f2:5a81:94a4:a294:1f3e:3361/id/WhY5UIDpM4c.1/itag/301/source/yt_live_broadcast/requiressl/yes/ratebypass/yes/live/1/sgoap/gir%3Dyes%3Bitag%3D140/sgovp/gir%3Dyes%3Bitag%3D299/rqh/1/hls_chunk_host/rr6---sn-ci5gup-jwc6.googlevideo.com/xpc/EgVo2aDSNQ%3D%3D/playlist_duration/30/manifest_duration/30/bui/AYUSA3B5GwvulvlYQnAfDCpufXGsl-3PJrTIoHuAhTpJwAWLpBm6WIEMo4jBB2Ry7Co3bCwQrp3_LdQQ/spc/wH4Qq5DARJ2swX5o8kJw/vprv/1/playlist_type/DVR/cps/517/initcwndbps/572500/met/1766120143,/mh/rV/mm/44/mn/sn-ci5gup-jwc6/ms/lva/mv/m/mvi/6/pl/44/rms/lva,lva/dover/11/pacing/0/keepalive/yes/fexp/51552689,51565116,51565681,51580968/mt/1766119706/sparams/expire,ei,ip,id,itag,source,requiressl,ratebypass,live,sgoap,sgovp,rqh,xpc,playlist_duration,manifest_duration,bui,spc,vprv,playlist_type/sig/AJfQdSswRgIhALD8_IMczHkNnuxBVgamcEv3G457Z-pcoAy0P-cBI9RbAiEAn3K9MNtzAt3INJOfn0Akv2yB2Yf3h4UvYyMDDRHBDC0%3D/lsparams/hls_chunk_host,cps,initcwndbps,met,mh,mm,mn,ms,mv,mvi,pl,rms/lsig/APaTxxMwRgIhAKh579PsJxgvSlgPoIokKI2oMszMk0kIXP-mxR1digyoAiEAwAcliYcUjjSyiatF9X3GUZ-Pjt90ZpsAyjAugw3N6CM%3D/playlist/index.m3u8' for reading
2025-12-19T04:55:56.7072932Z frame=    3 fps=0.3 q=5.0 size=N/A time=00:00:15.00 bitrate=N/A speed=1.53x elapsed=0:00:09.80    
2025-12-19T04:55:56.7087620Z [https @ 00000202b255a200] Opening 'https://rr6---sn-ci5gup-jwc6.googlevideo.com/videoplayback/id/WhY5UIDpM4c.1/itag/301/source/yt_live_broadcast/expire/1766141742/ei/ztpEaa78Aqbb3LUP3bnluAY/ip/2401:4900:64f2:5a81:94a4:a294:1f3e:3361/requiressl/yes/ratebypass/yes/live/1/sgoap/gir%3Dyes%3Bitag%3D140/sgovp/gir%3Dyes%3Bitag%3D299/rqh/1/hls_chunk_host/rr6---sn-ci5gup-jwc6.googlevideo.com/xpc/EgVo2aDSNQ%3D%3D/playlist_duration/30/manifest_duration/30/bui/AYUSA3B5GwvulvlYQnAfDCpufXGsl-3PJrTIoHuAhTpJwAWLpBm6WIEMo4jBB2Ry7Co3bCwQrp3_LdQQ/spc/wH4Qq5DARJ2swX5o8kJw/vprv/1/playlist_type/DVR/cps/517/initcwndbps/572500/met/1766120143,/mh/rV/mm/44/mn/sn-ci5gup-jwc6/ms/lva/mv/m/mvi/6/pl/44/rms/lva,lva/keepalive/yes/fexp/51552689,51565116,51565681,51580968/mt/1766119706/sparams/expire,ei,ip,id,itag,source,requiressl,ratebypass,live,sgoap,sgovp,rqh,xpc,playlist_duration,manifest_duration,bui,spc,vprv,playlist_type/sig/AJfQdSswRgIhALD8_IMczHkNnuxBVgamcEv3G457Z-pcoAy0P-cBI9RbAiEAn3K9MNtzAt3INJOfn0Akv2yB2Yf3h4UvYyMDDRHBDC0%3D/lsparams/hls_chunk_host,cps,initcwndbps,met,mh,mm,mn,ms,mv,mvi,pl,rms/lsig/APaTxxMwRgIhAKh579PsJxgvSlgPoIokKI2oMszMk0kIXP-mxR1digyoAiEAwAcliYcUjjSyiatF9X3GUZ-Pjt90ZpsAyjAugw3N6CM%3D/playlist/index.m3u8/sq/569/goap/lmt%3D1/govp/lmt%3D1/dur/5.000/file/seg.ts' for reading
2025-12-19T04:55:56.9019769Z [https @ 00000202b2834980] Opening 'https://rr6---sn-ci5gup-jwc6.googlevideo.com/videoplayback/id/WhY5UIDpM4c.1/itag/301/source/yt_live_broadcast/expire/1766141742/ei/ztpEaa78Aqbb3LUP3bnluAY/ip/2401:4900:64f2:5a81:94a4:a294:1f3e:3361/requiressl/yes/ratebypass/yes/live/1/sgoap/gir%3Dyes%3Bitag%3D140/sgovp/gir%3Dyes%3Bitag%3D299/rqh/1/hls_chunk_host/rr6---sn-ci5gup-jwc6.googlevideo.com/xpc/EgVo2aDSNQ%3D%3D/playlist_duration/30/manifest_duration/30/bui/AYUSA3B5GwvulvlYQnAfDCpufXGsl-3PJrTIoHuAhTpJwAWLpBm6WIEMo4jBB2Ry7Co3bCwQrp3_LdQQ/spc/wH4Qq5DARJ2swX5o8kJw/vprv/1/playlist_type/DVR/cps/517/initcwndbps/572500/met/1766120143,/mh/rV/mm/44/mn/sn-ci5gup-jwc6/ms/lva/mv/m/mvi/6/pl/44/rms/lva,lva/keepalive/yes/fexp/51552689,51565116,51565681,51580968/mt/1766119706/sparams/expire,ei,ip,id,itag,source,requiressl,ratebypass,live,sgoap,sgovp,rqh,xpc,playlist_duration,manifest_duration,bui,spc,vprv,playlist_type/sig/AJfQdSswRgIhALD8_IMczHkNnuxBVgamcEv3G457Z-pcoAy0P-cBI9RbAiEAn3K9MNtzAt3INJOfn0Akv2yB2Yf3h4UvYyMDDRHBDC0%3D/lsparams/hls_chunk_host,cps,initcwndbps,met,mh,mm,mn,ms,mv,mvi,pl,rms/lsig/APaTxxMwRgIhAKh579PsJxgvSlgPoIokKI2oMszMk0kIXP-mxR1digyoAiEAwAcliYcUjjSyiatF9X3GUZ-Pjt90ZpsAyjAugw3N6CM%3D/playlist/index.m3u8/sq/570/goap/lmt%3D1/govp/lmt%3D1/dur/5.000/file/seg.ts' for reading
2025-12-19T04:55:57.6082787Z frame=    3 fps=0.3 q=5.0 size=N/A time=00:00:15.00 bitrate=N/A speed=1.45x elapsed=0:00:10.32    
2025-12-19T04:55:58.1230586Z frame=    4 fps=0.4 q=5.0 size=N/A time=00:00:20.00 bitrate=N/A speed=1.85x elapsed=0:00:10.83    
2025-12-19T04:55:58.6404728Z frame=    5 fps=0.4 q=5.0 size=N/A time=00:00:25.00 bitrate=N/A speed= 2.2x elapsed=0:00:11.35    
2025-12-19T04:55:59.1571189Z frame=    5 fps=0.4 q=5.0 size=N/A time=00:00:25.00 bitrate=N/A speed=2.11x elapsed=0:00:11.86    
2025-12-19T04:55:59.6707988Z frame=    5 fps=0.4 q=5.0 size=N/A time=00:00:25.00 bitrate=N/A speed=2.02x elapsed=0:00:12.38    
2025-12-19T04:56:00.1953065Z frame=    5 fps=0.4 q=5.0 size=N/A time=00:00:25.00 bitrate=N/A speed=1.94x elapsed=0:00:12.89    
2025-12-19T04:56:00.7041788Z frame=    5 fps=0.4 q=5.0 size=N/A time=00:00:25.00 bitrate=N/A speed=1.86x elapsed=0:00:13.42    
2025-12-19T04:56:01.2220012Z frame=    5 fps=0.4 q=5.0 size=N/A time=00:00:25.00 bitrate=N/A speed=1.79x elapsed=0:00:13.93    
2025-12-19T04:56:01.7332132Z frame=    5 fps=0.3 q=5.0 size=N/A time=00:00:25.00 bitrate=N/A speed=1.73x elapsed=0:00:14.45    
2025-12-19T04:56:01.7820225Z frame=    5 fps=0.3 q=5.0 size=N/A time=00:00:25.00 bitrate=N/A speed=1.67x elapsed=0:00:14.96    
2025-12-19T04:56:01.7834552Z [https @ 00000202b2c70240] Opening 'https://manifest.googlevideo.com/api/manifest/hls_playlist/expire/1766141742/ei/ztpEaa78Aqbb3LUP3bnluAY/ip/2401:4900:64f2:5a81:94a4:a294:1f3e:3361/id/WhY5UIDpM4c.1/itag/301/source/yt_live_broadcast/requiressl/yes/ratebypass/yes/live/1/sgoap/gir%3Dyes%3Bitag%3D140/sgovp/gir%3Dyes%3Bitag%3D299/rqh/1/hls_chunk_host/rr6---sn-ci5gup-jwc6.googlevideo.com/xpc/EgVo2aDSNQ%3D%3D/playlist_duration/30/manifest_duration/30/bui/AYUSA3B5GwvulvlYQnAfDCpufXGsl-3PJrTIoHuAhTpJwAWLpBm6WIEMo4jBB2Ry7Co3bCwQrp3_LdQQ/spc/wH4Qq5DARJ2swX5o8kJw/vprv/1/playlist_type/DVR/cps/517/initcwndbps/572500/met/1766120143,/mh/rV/mm/44/mn/sn-ci5gup-jwc6/ms/lva/mv/m/mvi/6/pl/44/rms/lva,lva/dover/11/pacing/0/keepalive/yes/fexp/51552689,51565116,51565681,51580968/mt/1766119706/sparams/expire,ei,ip,id,itag,source,requiressl,ratebypass,live,sgoap,sgovp,rqh,xpc,playlist_duration,manifest_duration,bui,spc,vprv,playlist_type/sig/AJfQdSswRgIhALD8_IMczHkNnuxBVgamcEv3G457Z-pcoAy0P-cBI9RbAiEAn3K9MNtzAt3INJOfn0Akv2yB2Yf3h4UvYyMDDRHBDC0%3D/lsparams/hls_chunk_host,cps,initcwndbps,met,mh,mm,mn,ms,mv,mvi,pl,rms/lsig/APaTxxMwRgIhAKh579PsJxgvSlgPoIokKI2oMszMk0kIXP-mxR1digyoAiEAwAcliYcUjjSyiatF9X3GUZ-Pjt90ZpsAyjAugw3N6CM%3D/playlist/index.m3u8' for reading
2025-12-19T04:56:01.9826388Z [https @ 00000202b2834980] Opening 'https://rr6---sn-ci5gup-jwc6.googlevideo.com/videoplayback/id/WhY5UIDpM4c.1/itag/301/source/yt_live_broadcast/expire/1766141742/ei/ztpEaa78Aqbb3LUP3bnluAY/ip/2401:4900:64f2:5a81:94a4:a294:1f3e:3361/requiressl/yes/ratebypass/yes/live/1/sgoap/gir%3Dyes%3Bitag%3D140/sgovp/gir%3Dyes%3Bitag%3D299/rqh/1/hls_chunk_host/rr6---sn-ci5gup-jwc6.googlevideo.com/xpc/EgVo2aDSNQ%3D%3D/playlist_duration/30/manifest_duration/30/bui/AYUSA3B5GwvulvlYQnAfDCpufXGsl-3PJrTIoHuAhTpJwAWLpBm6WIEMo4jBB2Ry7Co3bCwQrp3_LdQQ/spc/wH4Qq5DARJ2swX5o8kJw/vprv/1/playlist_type/DVR/cps/517/initcwndbps/572500/met/1766120143,/mh/rV/mm/44/mn/sn-ci5gup-jwc6/ms/lva/mv/m/mvi/6/pl/44/rms/lva,lva/keepalive/yes/fexp/51552689,51565116,51565681,51580968/mt/1766119706/sparams/expire,ei,ip,id,itag,source,requiressl,ratebypass,live,sgoap,sgovp,rqh,xpc,playlist_duration,manifest_duration,bui,spc,vprv,playlist_type/sig/AJfQdSswRgIhALD8_IMczHkNnuxBVgamcEv3G457Z-pcoAy0P-cBI9RbAiEAn3K9MNtzAt3INJOfn0Akv2yB2Yf3h4UvYyMDDRHBDC0%3D/lsparams/hls_chunk_host,cps,initcwndbps,met,mh,mm,mn,ms,mv,mvi,pl,rms/lsig/APaTxxMwRgIhAKh579PsJxgvSlgPoIokKI2oMszMk0kIXP-mxR1digyoAiEAwAcliYcUjjSyiatF9X3GUZ-Pjt90ZpsAyjAugw3N6CM%3D/playlist/index.m3u8/sq/571/goap/lmt%3D1/govp/lmt%3D1/dur/5.000/file/seg.ts' for reading
2025-12-19T04:56:02.7679559Z frame=    5 fps=0.3 q=5.0 size=N/A time=00:00:25.00 bitrate=N/A speed=1.62x elapsed=0:00:15.47    
2025-12-19T04:56:03.2903106Z frame=    5 fps=0.3 q=5.0 size=N/A time=00:00:25.00 bitrate=N/A speed=1.56x elapsed=0:00:15.99    
2025-12-19T04:56:03.8034171Z frame=    6 fps=0.4 q=5.0 size=N/A time=00:00:30.00 bitrate=N/A speed=1.82x elapsed=0:00:16.51    
2025-12-19T04:56:04.3093951Z frame=    6 fps=0.4 q=5.0 size=N/A time=00:00:30.00 bitrate=N/A speed=1.76x elapsed=0:00:17.03    
2025-12-19T04:56:04.8352701Z frame=    6 fps=0.3 q=5.0 size=N/A time=00:00:30.00 bitrate=N/A speed=1.71x elapsed=0:00:17.53    
2025-12-19T04:56:05.3512114Z frame=    6 fps=0.3 q=5.0 size=N/A time=00:00:30.00 bitrate=N/A speed=1.66x elapsed=0:00:18.06    
2025-12-19T04:56:05.8690484Z frame=    6 fps=0.3 q=5.0 size=N/A time=00:00:30.00 bitrate=N/A speed=1.61x elapsed=0:00:18.58    
2025-12-19T04:56:06.3765396Z frame=    6 fps=0.3 q=5.0 size=N/A time=00:00:30.00 bitrate=N/A speed=1.57x elapsed=0:00:19.09    
2025-12-19T04:56:06.8858629Z frame=    6 fps=0.3 q=5.0 size=N/A time=00:00:30.00 bitrate=N/A speed=1.53x elapsed=0:00:19.60    
2025-12-19T04:56:06.9975419Z frame=    6 fps=0.3 q=5.0 size=N/A time=00:00:30.00 bitrate=N/A speed=1.49x elapsed=0:00:20.11    
2025-12-19T04:56:06.9990542Z [https @ 00000202b2c70240] Opening 'https://manifest.googlevideo.com/api/manifest/hls_playlist/expire/1766141742/ei/ztpEaa78Aqbb3LUP3bnluAY/ip/2401:4900:64f2:5a81:94a4:a294:1f3e:3361/id/WhY5UIDpM4c.1/itag/301/source/yt_live_broadcast/requiressl/yes/ratebypass/yes/live/1/sgoap/gir%3Dyes%3Bitag%3D140/sgovp/gir%3Dyes%3Bitag%3D299/rqh/1/hls_chunk_host/rr6---sn-ci5gup-jwc6.googlevideo.com/xpc/EgVo2aDSNQ%3D%3D/playlist_duration/30/manifest_duration/30/bui/AYUSA3B5GwvulvlYQnAfDCpufXGsl-3PJrTIoHuAhTpJwAWLpBm6WIEMo4jBB2Ry7Co3bCwQrp3_LdQQ/spc/wH4Qq5DARJ2swX5o8kJw/vprv/1/playlist_type/DVR/cps/517/initcwndbps/572500/met/1766120143,/mh/rV/mm/44/mn/sn-ci5gup-jwc6/ms/lva/mv/m/mvi/6/pl/44/rms/lva,lva/dover/11/pacing/0/keepalive/yes/fexp/51552689,51565116,51565681,51580968/mt/1766119706/sparams/expire,ei,ip,id,itag,source,requiressl,ratebypass,live,sgoap,sgovp,rqh,xpc,playlist_duration,manifest_duration,bui,spc,vprv,playlist_type/sig/AJfQdSswRgIhALD8_IMczHkNnuxBVgamcEv3G457Z-pcoAy0P-cBI9RbAiEAn3K9MNtzAt3INJOfn0Akv2yB2Yf3h4UvYyMDDRHBDC0%3D/lsparams/hls_chunk_host,cps,initcwndbps,met,mh,mm,mn,ms,mv,mvi,pl,rms/lsig/APaTxxMwRgIhAKh579PsJxgvSlgPoIokKI2oMszMk0kIXP-mxR1digyoAiEAwAcliYcUjjSyiatF9X3GUZ-Pjt90ZpsAyjAugw3N6CM%3D/playlist/index.m3u8' for reading
2025-12-19T04:56:07.1910529Z [https @ 00000202b2834980] Opening 'https://rr6---sn-ci5gup-jwc6.googlevideo.com/videoplayback/id/WhY5UIDpM4c.1/itag/301/source/yt_live_broadcast/expire/1766141742/ei/ztpEaa78Aqbb3LUP3bnluAY/ip/2401:4900:64f2:5a81:94a4:a294:1f3e:3361/requiressl/yes/ratebypass/yes/live/1/sgoap/gir%3Dyes%3Bitag%3D140/sgovp/gir%3Dyes%3Bitag%3D299/rqh/1/hls_chunk_host/rr6---sn-ci5gup-jwc6.googlevideo.com/xpc/EgVo2aDSNQ%3D%3D/playlist_duration/30/manifest_duration/30/bui/AYUSA3B5GwvulvlYQnAfDCpufXGsl-3PJrTIoHuAhTpJwAWLpBm6WIEMo4jBB2Ry7Co3bCwQrp3_LdQQ/spc/wH4Qq5DARJ2swX5o8kJw/vprv/1/playlist_type/DVR/cps/517/initcwndbps/572500/met/1766120143,/mh/rV/mm/44/mn/sn-ci5gup-jwc6/ms/lva/mv/m/mvi/6/pl/44/rms/lva,lva/keepalive/yes/fexp/51552689,51565116,51565681,51580968/mt/1766119706/sparams/expire,ei,ip,id,itag,source,requiressl,ratebypass,live,sgoap,sgovp,rqh,xpc,playlist_duration,manifest_duration,bui,spc,vprv,playlist_type/sig/AJfQdSswRgIhALD8_IMczHkNnuxBVgamcEv3G457Z-pcoAy0P-cBI9RbAiEAn3K9MNtzAt3INJOfn0Akv2yB2Yf3h4UvYyMDDRHBDC0%3D/lsparams/hls_chunk_host,cps,initcwndbps,met,mh,mm,mn,ms,mv,mvi,pl,rms/lsig/APaTxxMwRgIhAKh579PsJxgvSlgPoIokKI2oMszMk0kIXP-mxR1digyoAiEAwAcliYcUjjSyiatF9X3GUZ-Pjt90ZpsAyjAugw3N6CM%3D/playlist/index.m3u8/sq/572/goap/lmt%3D1/govp/lmt%3D1/dur/5.000/file/seg.ts' for reading
2025-12-19T04:56:07.9427462Z frame=    6 fps=0.3 q=5.0 size=N/A time=00:00:30.00 bitrate=N/A speed=1.45x elapsed=0:00:20.64    
2025-12-19T04:56:08.4499822Z frame=    6 fps=0.3 q=5.0 size=N/A time=00:00:30.00 bitrate=N/A speed=1.42x elapsed=0:00:21.17    
2025-12-19T04:56:08.9757107Z frame=    7 fps=0.3 q=5.0 size=N/A time=00:00:35.00 bitrate=N/A speed=1.61x elapsed=0:00:21.67    
2025-12-19T04:56:09.4884994Z frame=    7 fps=0.3 q=5.0 size=N/A time=00:00:35.00 bitrate=N/A speed=1.58x elapsed=0:00:22.20    
2025-12-19T04:56:10.0049953Z frame=    7 fps=0.3 q=5.0 size=N/A time=00:00:35.00 bitrate=N/A speed=1.54x elapsed=0:00:22.71    
2025-12-19T04:56:10.5254090Z frame=    7 fps=0.3 q=5.0 size=N/A time=00:00:35.00 bitrate=N/A speed=1.51x elapsed=0:00:23.23    
2025-12-19T04:56:11.0317219Z frame=    7 fps=0.3 q=5.0 size=N/A time=00:00:35.00 bitrate=N/A speed=1.47x elapsed=0:00:23.75    
2025-12-19T04:56:11.5472058Z frame=    7 fps=0.3 q=5.0 size=N/A time=00:00:35.00 bitrate=N/A speed=1.44x elapsed=0:00:24.26    
2025-12-19T04:56:12.0587265Z frame=    7 fps=0.3 q=5.0 size=N/A time=00:00:35.00 bitrate=N/A speed=1.41x elapsed=0:00:24.77    
2025-12-19T04:56:12.2795633Z frame=    7 fps=0.3 q=5.0 size=N/A time=00:00:35.00 bitrate=N/A speed=1.38x elapsed=0:00:25.28    
2025-12-19T04:56:12.2810168Z [https @ 00000202b2c70240] Opening 'https://manifest.googlevideo.com/api/manifest/hls_playlist/expire/1766141742/ei/ztpEaa78Aqbb3LUP3bnluAY/ip/2401:4900:64f2:5a81:94a4:a294:1f3e:3361/id/WhY5UIDpM4c.1/itag/301/source/yt_live_broadcast/requiressl/yes/ratebypass/yes/live/1/sgoap/gir%3Dyes%3Bitag%3D140/sgovp/gir%3Dyes%3Bitag%3D299/rqh/1/hls_chunk_host/rr6---sn-ci5gup-jwc6.googlevideo.com/xpc/EgVo2aDSNQ%3D%3D/playlist_duration/30/manifest_duration/30/bui/AYUSA3B5GwvulvlYQnAfDCpufXGsl-3PJrTIoHuAhTpJwAWLpBm6WIEMo4jBB2Ry7Co3bCwQrp3_LdQQ/spc/wH4Qq5DARJ2swX5o8kJw/vprv/1/playlist_type/DVR/cps/517/initcwndbps/572500/met/1766120143,/mh/rV/mm/44/mn/sn-ci5gup-jwc6/ms/lva/mv/m/mvi/6/pl/44/rms/lva,lva/dover/11/pacing/0/keepalive/yes/fexp/51552689,51565116,51565681,51580968/mt/1766119706/sparams/expire,ei,ip,id,itag,source,requiressl,ratebypass,live,sgoap,sgovp,rqh,xpc,playlist_duration,manifest_duration,bui,spc,vprv,playlist_type/sig/AJfQdSswRgIhALD8_IMczHkNnuxBVgamcEv3G457Z-pcoAy0P-cBI9RbAiEAn3K9MNtzAt3INJOfn0Akv2yB2Yf3h4UvYyMDDRHBDC0%3D/lsparams/hls_chunk_host,cps,initcwndbps,met,mh,mm,mn,ms,mv,mvi,pl,rms/lsig/APaTxxMwRgIhAKh579PsJxgvSlgPoIokKI2oMszMk0kIXP-mxR1digyoAiEAwAcliYcUjjSyiatF9X3GUZ-Pjt90ZpsAyjAugw3N6CM%3D/playlist/index.m3u8' for reading
2025-12-19T04:56:12.5099150Z [https @ 00000202b2834980] Opening 'https://rr6---sn-ci5gup-jwc6.googlevideo.com/videoplayback/id/WhY5UIDpM4c.1/itag/301/source/yt_live_broadcast/expire/1766141742/ei/ztpEaa78Aqbb3LUP3bnluAY/ip/2401:4900:64f2:5a81:94a4:a294:1f3e:3361/requiressl/yes/ratebypass/yes/live/1/sgoap/gir%3Dyes%3Bitag%3D140/sgovp/gir%3Dyes%3Bitag%3D299/rqh/1/hls_chunk_host/rr6---sn-ci5gup-jwc6.googlevideo.com/xpc/EgVo2aDSNQ%3D%3D/playlist_duration/30/manifest_duration/30/bui/AYUSA3B5GwvulvlYQnAfDCpufXGsl-3PJrTIoHuAhTpJwAWLpBm6WIEMo4jBB2Ry7Co3bCwQrp3_LdQQ/spc/wH4Qq5DARJ2swX5o8kJw/vprv/1/playlist_type/DVR/cps/517/initcwndbps/572500/met/1766120143,/mh/rV/mm/44/mn/sn-ci5gup-jwc6/ms/lva/mv/m/mvi/6/pl/44/rms/lva,lva/keepalive/yes/fexp/51552689,51565116,51565681,51580968/mt/1766119706/sparams/expire,ei,ip,id,itag,source,requiressl,ratebypass,live,sgoap,sgovp,rqh,xpc,playlist_duration,manifest_duration,bui,spc,vprv,playlist_type/sig/AJfQdSswRgIhALD8_IMczHkNnuxBVgamcEv3G457Z-pcoAy0P-cBI9RbAiEAn3K9MNtzAt3INJOfn0Akv2yB2Yf3h4UvYyMDDRHBDC0%3D/lsparams/hls_chunk_host,cps,initcwndbps,met,mh,mm,mn,ms,mv,mvi,pl,rms/lsig/APaTxxMwRgIhAKh579PsJxgvSlgPoIokKI2oMszMk0kIXP-mxR1digyoAiEAwAcliYcUjjSyiatF9X3GUZ-Pjt90ZpsAyjAugw3N6CM%3D/playlist/index.m3u8/sq/573/goap/lmt%3D1/govp/lmt%3D1/dur/5.000/file/seg.ts' for reading
2025-12-19T04:56:13.1148983Z frame=    7 fps=0.3 q=5.0 size=N/A time=00:00:35.00 bitrate=N/A speed=1.36x elapsed=0:00:25.80    
2025-12-19T04:56:13.6167917Z frame=    7 fps=0.3 q=5.0 size=N/A time=00:00:35.00 bitrate=N/A speed=1.33x elapsed=0:00:26.33    
2025-12-19T04:56:14.1280770Z frame=    8 fps=0.3 q=5.0 size=N/A time=00:00:40.00 bitrate=N/A speed=1.49x elapsed=0:00:26.84    
2025-12-19T04:56:14.6503384Z frame=    8 fps=0.3 q=5.0 size=N/A time=00:00:40.00 bitrate=N/A speed=1.46x elapsed=0:00:27.35    
2025-12-19T04:56:15.1587225Z frame=    8 fps=0.3 q=5.0 size=N/A time=00:00:40.00 bitrate=N/A speed=1.43x elapsed=0:00:27.87    
2025-12-19T04:56:15.6748460Z frame=    8 fps=0.3 q=5.0 size=N/A time=00:00:40.00 bitrate=N/A speed=1.41x elapsed=0:00:28.38    
2025-12-19T04:56:16.1891645Z frame=    8 fps=0.3 q=5.0 size=N/A time=00:00:40.00 bitrate=N/A speed=1.38x elapsed=0:00:28.90    
2025-12-19T04:56:16.7098671Z frame=    8 fps=0.3 q=5.0 size=N/A time=00:00:40.00 bitrate=N/A speed=1.36x elapsed=0:00:29.41    
2025-12-19T04:56:17.2190228Z frame=    8 fps=0.3 q=5.0 size=N/A time=00:00:40.00 bitrate=N/A speed=1.34x elapsed=0:00:29.93    
2025-12-19T04:56:17.5495862Z frame=    8 fps=0.3 q=5.0 size=N/A time=00:00:40.00 bitrate=N/A speed=1.31x elapsed=0:00:30.44    
2025-12-19T04:56:17.5511364Z [https @ 00000202b2c70240] Opening 'https://manifest.googlevideo.com/api/manifest/hls_playlist/expire/1766141742/ei/ztpEaa78Aqbb3LUP3bnluAY/ip/2401:4900:64f2:5a81:94a4:a294:1f3e:3361/id/WhY5UIDpM4c.1/itag/301/source/yt_live_broadcast/requiressl/yes/ratebypass/yes/live/1/sgoap/gir%3Dyes%3Bitag%3D140/sgovp/gir%3Dyes%3Bitag%3D299/rqh/1/hls_chunk_host/rr6---sn-ci5gup-jwc6.googlevideo.com/xpc/EgVo2aDSNQ%3D%3D/playlist_duration/30/manifest_duration/30/bui/AYUSA3B5GwvulvlYQnAfDCpufXGsl-3PJrTIoHuAhTpJwAWLpBm6WIEMo4jBB2Ry7Co3bCwQrp3_LdQQ/spc/wH4Qq5DARJ2swX5o8kJw/vprv/1/playlist_type/DVR/cps/517/initcwndbps/572500/met/1766120143,/mh/rV/mm/44/mn/sn-ci5gup-jwc6/ms/lva/mv/m/mvi/6/pl/44/rms/lva,lva/dover/11/pacing/0/keepalive/yes/fexp/51552689,51565116,51565681,51580968/mt/1766119706/sparams/expire,ei,ip,id,itag,source,requiressl,ratebypass,live,sgoap,sgovp,rqh,xpc,playlist_duration,manifest_duration,bui,spc,vprv,playlist_type/sig/AJfQdSswRgIhALD8_IMczHkNnuxBVgamcEv3G457Z-pcoAy0P-cBI9RbAiEAn3K9MNtzAt3INJOfn0Akv2yB2Yf3h4UvYyMDDRHBDC0%3D/lsparams/hls_chunk_host,cps,initcwndbps,met,mh,mm,mn,ms,mv,mvi,pl,rms/lsig/APaTxxMwRgIhAKh579PsJxgvSlgPoIokKI2oMszMk0kIXP-mxR1digyoAiEAwAcliYcUjjSyiatF9X3GUZ-Pjt90ZpsAyjAugw3N6CM%3D/playlist/index.m3u8' for reading
2025-12-19T04:56:17.7493354Z frame=    8 fps=0.3 q=5.0 size=N/A time=00:00:40.00 bitrate=N/A speed=1.29x elapsed=0:00:30.96    
2025-12-19T04:56:17.7508316Z [https @ 00000202b2834980] Opening 'https://rr6---sn-ci5gup-jwc6.googlevideo.com/videoplayback/id/WhY5UIDpM4c.1/itag/301/source/yt_live_broadcast/expire/1766141742/ei/ztpEaa78Aqbb3LUP3bnluAY/ip/2401:4900:64f2:5a81:94a4:a294:1f3e:3361/requiressl/yes/ratebypass/yes/live/1/sgoap/gir%3Dyes%3Bitag%3D140/sgovp/gir%3Dyes%3Bitag%3D299/rqh/1/hls_chunk_host/rr6---sn-ci5gup-jwc6.googlevideo.com/xpc/EgVo2aDSNQ%3D%3D/playlist_duration/30/manifest_duration/30/bui/AYUSA3B5GwvulvlYQnAfDCpufXGsl-3PJrTIoHuAhTpJwAWLpBm6WIEMo4jBB2Ry7Co3bCwQrp3_LdQQ/spc/wH4Qq5DARJ2swX5o8kJw/vprv/1/playlist_type/DVR/cps/517/initcwndbps/572500/met/1766120143,/mh/rV/mm/44/mn/sn-ci5gup-jwc6/ms/lva/mv/m/mvi/6/pl/44/rms/lva,lva/keepalive/yes/fexp/51552689,51565116,51565681,51580968/mt/1766119706/sparams/expire,ei,ip,id,itag,source,requiressl,ratebypass,live,sgoap,sgovp,rqh,xpc,playlist_duration,manifest_duration,bui,spc,vprv,playlist_type/sig/AJfQdSswRgIhALD8_IMczHkNnuxBVgamcEv3G457Z-pcoAy0P-cBI9RbAiEAn3K9MNtzAt3INJOfn0Akv2yB2Yf3h4UvYyMDDRHBDC0%3D/lsparams/hls_chunk_host,cps,initcwndbps,met,mh,mm,mn,ms,mv,mvi,pl,rms/lsig/APaTxxMwRgIhAKh579PsJxgvSlgPoIokKI2oMszMk0kIXP-mxR1digyoAiEAwAcliYcUjjSyiatF9X3GUZ-Pjt90ZpsAyjAugw3N6CM%3D/playlist/index.m3u8/sq/574/goap/lmt%3D1/govp/lmt%3D1/dur/5.000/file/seg.ts' for reading
2025-12-19T04:56:18.7692060Z frame=    8 fps=0.3 q=5.0 size=N/A time=00:00:40.00 bitrate=N/A speed=1.27x elapsed=0:00:31.47    
2025-12-19T04:56:19.2889579Z frame=    9 fps=0.3 q=5.0 size=N/A time=00:00:45.00 bitrate=N/A speed=1.41x elapsed=0:00:31.99    
2025-12-19T04:56:19.7919207Z frame=    9 fps=0.3 q=5.0 size=N/A time=00:00:45.00 bitrate=N/A speed=1.38x elapsed=0:00:32.51    
2025-12-19T04:56:20.3126917Z frame=    9 fps=0.3 q=5.0 size=N/A time=00:00:45.00 bitrate=N/A speed=1.36x elapsed=0:00:33.02    
2025-12-19T04:56:20.8240318Z frame=    9 fps=0.3 q=5.0 size=N/A time=00:00:45.00 bitrate=N/A speed=1.34x elapsed=0:00:33.54    
2025-12-19T04:56:21.3394249Z frame=    9 fps=0.3 q=5.0 size=N/A time=00:00:45.00 bitrate=N/A speed=1.32x elapsed=0:00:34.05    
2025-12-19T04:56:21.8593857Z frame=    9 fps=0.3 q=5.0 size=N/A time=00:00:45.00 bitrate=N/A speed= 1.3x elapsed=0:00:34.56    
2025-12-19T04:56:22.3744557Z frame=    9 fps=0.3 q=5.0 size=N/A time=00:00:45.00 bitrate=N/A speed=1.28x elapsed=0:00:35.08    
2025-12-19T04:56:22.8468337Z frame=    9 fps=0.3 q=5.0 size=N/A time=00:00:45.00 bitrate=N/A speed=1.26x elapsed=0:00:35.60    
2025-12-19T04:56:22.8472148Z [https @ 00000202b2c70240] Opening 'https://manifest.googlevideo.com/api/manifest/hls_playlist/expire/1766141742/ei/ztpEaa78Aqbb3LUP3bnluAY/ip/2401:4900:64f2:5a81:94a4:a294:1f3e:3361/id/WhY5UIDpM4c.1/itag/301/source/yt_live_broadcast/requiressl/yes/ratebypass/yes/live/1/sgoap/gir%3Dyes%3Bitag%3D140/sgovp/gir%3Dyes%3Bitag%3D299/rqh/1/hls_chunk_host/rr6---sn-ci5gup-jwc6.googlevideo.com/xpc/EgVo2aDSNQ%3D%3D/playlist_duration/30/manifest_duration/30/bui/AYUSA3B5GwvulvlYQnAfDCpufXGsl-3PJrTIoHuAhTpJwAWLpBm6WIEMo4jBB2Ry7Co3bCwQrp3_LdQQ/spc/wH4Qq5DARJ2swX5o8kJw/vprv/1/playlist_type/DVR/cps/517/initcwndbps/572500/met/1766120143,/mh/rV/mm/44/mn/sn-ci5gup-jwc6/ms/lva/mv/m/mvi/6/pl/44/rms/lva,lva/dover/11/pacing/0/keepalive/yes/fexp/51552689,51565116,51565681,51580968/mt/1766119706/sparams/expire,ei,ip,id,itag,source,requiressl,ratebypass,live,sgoap,sgovp,rqh,xpc,playlist_duration,manifest_duration,bui,spc,vprv,playlist_type/sig/AJfQdSswRgIhALD8_IMczHkNnuxBVgamcEv3G457Z-pcoAy0P-cBI9RbAiEAn3K9MNtzAt3INJOfn0Akv2yB2Yf3h4UvYyMDDRHBDC0%3D/lsparams/hls_chunk_host,cps,initcwndbps,met,mh,mm,mn,ms,mv,mvi,pl,rms/lsig/APaTxxMwRgIhAKh579PsJxgvSlgPoIokKI2oMszMk0kIXP-mxR1digyoAiEAwAcliYcUjjSyiatF9X3GUZ-Pjt90ZpsAyjAugw3N6CM%3D/playlist/index.m3u8' for reading
2025-12-19T04:56:23.0853920Z frame=    9 fps=0.2 q=5.0 size=N/A time=00:00:45.00 bitrate=N/A speed=1.25x elapsed=0:00:36.12    
2025-12-19T04:56:23.0868872Z [https @ 00000202b2834980] Opening 'https://rr6---sn-ci5gup-jwc6.googlevideo.com/videoplayback/id/WhY5UIDpM4c.1/itag/301/source/yt_live_broadcast/expire/1766141742/ei/ztpEaa78Aqbb3LUP3bnluAY/ip/2401:4900:64f2:5a81:94a4:a294:1f3e:3361/requiressl/yes/ratebypass/yes/live/1/sgoap/gir%3Dyes%3Bitag%3D140/sgovp/gir%3Dyes%3Bitag%3D299/rqh/1/hls_chunk_host/rr6---sn-ci5gup-jwc6.googlevideo.com/xpc/EgVo2aDSNQ%3D%3D/playlist_duration/30/manifest_duration/30/bui/AYUSA3B5GwvulvlYQnAfDCpufXGsl-3PJrTIoHuAhTpJwAWLpBm6WIEMo4jBB2Ry7Co3bCwQrp3_LdQQ/spc/wH4Qq5DARJ2swX5o8kJw/vprv/1/playlist_type/DVR/cps/517/initcwndbps/572500/met/1766120143,/mh/rV/mm/44/mn/sn-ci5gup-jwc6/ms/lva/mv/m/mvi/6/pl/44/rms/lva,lva/keepalive/yes/fexp/51552689,51565116,51565681,51580968/mt/1766119706/sparams/expire,ei,ip,id,itag,source,requiressl,ratebypass,live,sgoap,sgovp,rqh,xpc,playlist_duration,manifest_duration,bui,spc,vprv,playlist_type/sig/AJfQdSswRgIhALD8_IMczHkNnuxBVgamcEv3G457Z-pcoAy0P-cBI9RbAiEAn3K9MNtzAt3INJOfn0Akv2yB2Yf3h4UvYyMDDRHBDC0%3D/lsparams/hls_chunk_host,cps,initcwndbps,met,mh,mm,mn,ms,mv,mvi,pl,rms/lsig/APaTxxMwRgIhAKh579PsJxgvSlgPoIokKI2oMszMk0kIXP-mxR1digyoAiEAwAcliYcUjjSyiatF9X3GUZ-Pjt90ZpsAyjAugw3N6CM%3D/playlist/index.m3u8/sq/575/goap/lmt%3D1/govp/lmt%3D1/dur/5.000/file/seg.ts' for reading
2025-12-19T04:56:23.9252511Z frame=    9 fps=0.2 q=5.0 size=N/A time=00:00:45.00 bitrate=N/A speed=1.23x elapsed=0:00:36.64    
2025-12-19T04:56:24.4414269Z frame=    9 fps=0.2 q=5.0 size=N/A time=00:00:45.00 bitrate=N/A speed=1.21x elapsed=0:00:37.15    
2025-12-19T04:56:24.9491618Z frame=    9 fps=0.2 q=5.0 size=N/A time=00:00:45.00 bitrate=N/A speed=1.19x elapsed=0:00:37.67    
2025-12-19T04:56:25.4652959Z frame=   10 fps=0.3 q=5.0 size=N/A time=00:00:50.00 bitrate=N/A speed=1.31x elapsed=0:00:38.17    
2025-12-19T04:56:25.9891996Z frame=   10 fps=0.3 q=5.0 size=N/A time=00:00:50.00 bitrate=N/A speed=1.29x elapsed=0:00:38.69    
2025-12-19T04:56:26.4963650Z frame=   10 fps=0.3 q=5.0 size=N/A time=00:00:50.00 bitrate=N/A speed=1.27x elapsed=0:00:39.21    
2025-12-19T04:56:27.0256392Z frame=   10 fps=0.3 q=5.0 size=N/A time=00:00:50.00 bitrate=N/A speed=1.26x elapsed=0:00:39.72    
2025-12-19T04:56:27.5342584Z frame=   10 fps=0.2 q=5.0 size=N/A time=00:00:50.00 bitrate=N/A speed=1.24x elapsed=0:00:40.25    
2025-12-19T04:56:28.0500286Z frame=   10 fps=0.2 q=5.0 size=N/A time=00:00:50.00 bitrate=N/A speed=1.23x elapsed=0:00:40.76    
2025-12-19T04:56:28.1260448Z frame=   10 fps=0.2 q=5.0 size=N/A time=00:00:50.00 bitrate=N/A speed=1.21x elapsed=0:00:41.27    
2025-12-19T04:56:28.1274018Z [https @ 00000202b2c70240] Opening 'https://manifest.googlevideo.com/api/manifest/hls_playlist/expire/1766141742/ei/ztpEaa78Aqbb3LUP3bnluAY/ip/2401:4900:64f2:5a81:94a4:a294:1f3e:3361/id/WhY5UIDpM4c.1/itag/301/source/yt_live_broadcast/requiressl/yes/ratebypass/yes/live/1/sgoap/gir%3Dyes%3Bitag%3D140/sgovp/gir%3Dyes%3Bitag%3D299/rqh/1/hls_chunk_host/rr6---sn-ci5gup-jwc6.googlevideo.com/xpc/EgVo2aDSNQ%3D%3D/playlist_duration/30/manifest_duration/30/bui/AYUSA3B5GwvulvlYQnAfDCpufXGsl-3PJrTIoHuAhTpJwAWLpBm6WIEMo4jBB2Ry7Co3bCwQrp3_LdQQ/spc/wH4Qq5DARJ2swX5o8kJw/vprv/1/playlist_type/DVR/cps/517/initcwndbps/572500/met/1766120143,/mh/rV/mm/44/mn/sn-ci5gup-jwc6/ms/lva/mv/m/mvi/6/pl/44/rms/lva,lva/dover/11/pacing/0/keepalive/yes/fexp/51552689,51565116,51565681,51580968/mt/1766119706/sparams/expire,ei,ip,id,itag,source,requiressl,ratebypass,live,sgoap,sgovp,rqh,xpc,playlist_duration,manifest_duration,bui,spc,vprv,playlist_type/sig/AJfQdSswRgIhALD8_IMczHkNnuxBVgamcEv3G457Z-pcoAy0P-cBI9RbAiEAn3K9MNtzAt3INJOfn0Akv2yB2Yf3h4UvYyMDDRHBDC0%3D/lsparams/hls_chunk_host,cps,initcwndbps,met,mh,mm,mn,ms,mv,mvi,pl,rms/lsig/APaTxxMwRgIhAKh579PsJxgvSlgPoIokKI2oMszMk0kIXP-mxR1digyoAiEAwAcliYcUjjSyiatF9X3GUZ-Pjt90ZpsAyjAugw3N6CM%3D/playlist/index.m3u8' for reading
2025-12-19T04:56:28.3232534Z [https @ 00000202b2834980] Opening 'https://rr6---sn-ci5gup-jwc6.googlevideo.com/videoplayback/id/WhY5UIDpM4c.1/itag/301/source/yt_live_broadcast/expire/1766141742/ei/ztpEaa78Aqbb3LUP3bnluAY/ip/2401:4900:64f2:5a81:94a4:a294:1f3e:3361/requiressl/yes/ratebypass/yes/live/1/sgoap/gir%3Dyes%3Bitag%3D140/sgovp/gir%3Dyes%3Bitag%3D299/rqh/1/hls_chunk_host/rr6---sn-ci5gup-jwc6.googlevideo.com/xpc/EgVo2aDSNQ%3D%3D/playlist_duration/30/manifest_duration/30/bui/AYUSA3B5GwvulvlYQnAfDCpufXGsl-3PJrTIoHuAhTpJwAWLpBm6WIEMo4jBB2Ry7Co3bCwQrp3_LdQQ/spc/wH4Qq5DARJ2swX5o8kJw/vprv/1/playlist_type/DVR/cps/517/initcwndbps/572500/met/1766120143,/mh/rV/mm/44/mn/sn-ci5gup-jwc6/ms/lva/mv/m/mvi/6/pl/44/rms/lva,lva/keepalive/yes/fexp/51552689,51565116,51565681,51580968/mt/1766119706/sparams/expire,ei,ip,id,itag,source,requiressl,ratebypass,live,sgoap,sgovp,rqh,xpc,playlist_duration,manifest_duration,bui,spc,vprv,playlist_type/sig/AJfQdSswRgIhALD8_IMczHkNnuxBVgamcEv3G457Z-pcoAy0P-cBI9RbAiEAn3K9MNtzAt3INJOfn0Akv2yB2Yf3h4UvYyMDDRHBDC0%3D/lsparams/hls_chunk_host,cps,initcwndbps,met,mh,mm,mn,ms,mv,mvi,pl,rms/lsig/APaTxxMwRgIhAKh579PsJxgvSlgPoIokKI2oMszMk0kIXP-mxR1digyoAiEAwAcliYcUjjSyiatF9X3GUZ-Pjt90ZpsAyjAugw3N6CM%3D/playlist/index.m3u8/sq/576/goap/lmt%3D1/govp/lmt%3D1/dur/5.000/file/seg.ts' for reading
2025-12-19T04:56:29.0743157Z frame=   10 fps=0.2 q=5.0 size=N/A time=00:00:50.00 bitrate=N/A speed= 1.2x elapsed=0:00:41.79    
2025-12-19T04:56:29.5938533Z frame=   10 fps=0.2 q=5.0 size=N/A time=00:00:50.00 bitrate=N/A speed=1.18x elapsed=0:00:42.30    
2025-12-19T04:56:30.1050074Z frame=   11 fps=0.3 q=5.0 size=N/A time=00:00:55.00 bitrate=N/A speed=1.28x elapsed=0:00:42.82    
2025-12-19T04:56:30.6225873Z frame=   11 fps=0.3 q=5.0 size=N/A time=00:00:55.00 bitrate=N/A speed=1.27x elapsed=0:00:43.33    
2025-12-19T04:56:31.1374190Z frame=   11 fps=0.3 q=5.0 size=N/A time=00:00:55.00 bitrate=N/A speed=1.25x elapsed=0:00:43.85    
2025-12-19T04:56:31.6583552Z frame=   11 fps=0.2 q=5.0 size=N/A time=00:00:55.00 bitrate=N/A speed=1.24x elapsed=0:00:44.36    
2025-12-19T04:56:32.1690609Z frame=   11 fps=0.2 q=5.0 size=N/A time=00:00:55.00 bitrate=N/A speed=1.23x elapsed=0:00:44.88    
2025-12-19T04:56:32.6857459Z frame=   11 fps=0.2 q=5.0 size=N/A time=00:00:55.00 bitrate=N/A speed=1.21x elapsed=0:00:45.39    
2025-12-19T04:56:33.2008827Z frame=   11 fps=0.2 q=5.0 size=N/A time=00:00:55.00 bitrate=N/A speed= 1.2x elapsed=0:00:45.91    
2025-12-19T04:56:33.4018261Z frame=   11 fps=0.2 q=5.0 size=N/A time=00:00:55.00 bitrate=N/A speed=1.18x elapsed=0:00:46.42    
2025-12-19T04:56:33.4026623Z [https @ 00000202b2c70240] Opening 'https://manifest.googlevideo.com/api/manifest/hls_playlist/expire/1766141742/ei/ztpEaa78Aqbb3LUP3bnluAY/ip/2401:4900:64f2:5a81:94a4:a294:1f3e:3361/id/WhY5UIDpM4c.1/itag/301/source/yt_live_broadcast/requiressl/yes/ratebypass/yes/live/1/sgoap/gir%3Dyes%3Bitag%3D140/sgovp/gir%3Dyes%3Bitag%3D299/rqh/1/hls_chunk_host/rr6---sn-ci5gup-jwc6.googlevideo.com/xpc/EgVo2aDSNQ%3D%3D/playlist_duration/30/manifest_duration/30/bui/AYUSA3B5GwvulvlYQnAfDCpufXGsl-3PJrTIoHuAhTpJwAWLpBm6WIEMo4jBB2Ry7Co3bCwQrp3_LdQQ/spc/wH4Qq5DARJ2swX5o8kJw/vprv/1/playlist_type/DVR/cps/517/initcwndbps/572500/met/1766120143,/mh/rV/mm/44/mn/sn-ci5gup-jwc6/ms/lva/mv/m/mvi/6/pl/44/rms/lva,lva/dover/11/pacing/0/keepalive/yes/fexp/51552689,51565116,51565681,51580968/mt/1766119706/sparams/expire,ei,ip,id,itag,source,requiressl,ratebypass,live,sgoap,sgovp,rqh,xpc,playlist_duration,manifest_duration,bui,spc,vprv,playlist_type/sig/AJfQdSswRgIhALD8_IMczHkNnuxBVgamcEv3G457Z-pcoAy0P-cBI9RbAiEAn3K9MNtzAt3INJOfn0Akv2yB2Yf3h4UvYyMDDRHBDC0%3D/lsparams/hls_chunk_host,cps,initcwndbps,met,mh,mm,mn,ms,mv,mvi,pl,rms/lsig/APaTxxMwRgIhAKh579PsJxgvSlgPoIokKI2oMszMk0kIXP-mxR1digyoAiEAwAcliYcUjjSyiatF9X3GUZ-Pjt90ZpsAyjAugw3N6CM%3D/playlist/index.m3u8' for reading
2025-12-19T04:56:33.6047648Z [https @ 00000202b2834980] Opening 'https://rr6---sn-ci5gup-jwc6.googlevideo.com/videoplayback/id/WhY5UIDpM4c.1/itag/301/source/yt_live_broadcast/expire/1766141742/ei/ztpEaa78Aqbb3LUP3bnluAY/ip/2401:4900:64f2:5a81:94a4:a294:1f3e:3361/requiressl/yes/ratebypass/yes/live/1/sgoap/gir%3Dyes%3Bitag%3D140/sgovp/gir%3Dyes%3Bitag%3D299/rqh/1/hls_chunk_host/rr6---sn-ci5gup-jwc6.googlevideo.com/xpc/EgVo2aDSNQ%3D%3D/playlist_duration/30/manifest_duration/30/bui/AYUSA3B5GwvulvlYQnAfDCpufXGsl-3PJrTIoHuAhTpJwAWLpBm6WIEMo4jBB2Ry7Co3bCwQrp3_LdQQ/spc/wH4Qq5DARJ2swX5o8kJw/vprv/1/playlist_type/DVR/cps/517/initcwndbps/572500/met/1766120143,/mh/rV/mm/44/mn/sn-ci5gup-jwc6/ms/lva/mv/m/mvi/6/pl/44/rms/lva,lva/keepalive/yes/fexp/51552689,51565116,51565681,51580968/mt/1766119706/sparams/expire,ei,ip,id,itag,source,requiressl,ratebypass,live,sgoap,sgovp,rqh,xpc,playlist_duration,manifest_duration,bui,spc,vprv,playlist_type/sig/AJfQdSswRgIhALD8_IMczHkNnuxBVgamcEv3G457Z-pcoAy0P-cBI9RbAiEAn3K9MNtzAt3INJOfn0Akv2yB2Yf3h4UvYyMDDRHBDC0%3D/lsparams/hls_chunk_host,cps,initcwndbps,met,mh,mm,mn,ms,mv,mvi,pl,rms/lsig/APaTxxMwRgIhAKh579PsJxgvSlgPoIokKI2oMszMk0kIXP-mxR1digyoAiEAwAcliYcUjjSyiatF9X3GUZ-Pjt90ZpsAyjAugw3N6CM%3D/playlist/index.m3u8/sq/577/goap/lmt%3D1/govp/lmt%3D1/dur/5.000/file/seg.ts' for reading
2025-12-19T04:56:34.2344288Z frame=   11 fps=0.2 q=5.0 size=N/A time=00:00:55.00 bitrate=N/A speed=1.17x elapsed=0:00:46.94    
2025-12-19T04:56:34.7568480Z frame=   11 fps=0.2 q=5.0 size=N/A time=00:00:55.00 bitrate=N/A speed=1.16x elapsed=0:00:47.46    
2025-12-19T04:56:34.7569362Z [out#0/image2 @ 00000202b29f2c80] video:196KiB audio:0KiB subtitle:0KiB other streams:0KiB global headers:0KiB muxing overhead: unknown
2025-12-19T04:56:34.7569968Z frame=   12 fps=0.3 q=5.0 Lsize=N/A time=00:01:00.00 bitrate=N/A speed=1.25x elapsed=0:00:47.98    
2025-12-19T04:56:34.9144901Z ##[group]Run $ServerUrl = "https://sherwin-60052075848.development.catalystserverless.in/server/ultra_brain/process".Trim()
2025-12-19T04:56:34.9146077Z [36;1m$ServerUrl = "https://sherwin-60052075848.development.catalystserverless.in/server/ultra_brain/process".Trim()[0m
2025-12-19T04:56:34.9146721Z [36;1mWrite-Host "Target URL: $ServerUrl"[0m
2025-12-19T04:56:34.9147026Z [36;1m[0m
2025-12-19T04:56:34.9147344Z [36;1m$Image = Get-ChildItem screenshot_*.jpg | Select-Object -First 1[0m
2025-12-19T04:56:34.9147733Z [36;1m[0m
2025-12-19T04:56:34.9147920Z [36;1mif ($Image) {[0m
2025-12-19T04:56:34.9148255Z [36;1m    $Bytes = [System.IO.File]::ReadAllBytes($Image.FullName)[0m
2025-12-19T04:56:34.9148738Z [36;1m    $Base64Image = [System.Convert]::ToBase64String($Bytes)[0m
2025-12-19T04:56:34.9149172Z [36;1m    $Body = @{ image = $Base64Image } | ConvertTo-Json[0m
2025-12-19T04:56:34.9149493Z [36;1m    [0m
2025-12-19T04:56:34.9149744Z [36;1m    try {[0m
2025-12-19T04:56:34.9150422Z [36;1m        $Response = Invoke-WebRequest -Method Post -Uri $ServerUrl -Body $Body -ContentType "application/json" -UseBasicParsing[0m
2025-12-19T04:56:34.9151217Z [36;1m        Write-Host "Success: $($Response.Content)"[0m
2025-12-19T04:56:34.9151559Z [36;1m    } catch {[0m
2025-12-19T04:56:34.9151913Z [36;1m        $ErrorBody = $_.Exception.Response.GetResponseStream()[0m
2025-12-19T04:56:34.9152366Z [36;1m        $Reader = New-Object System.IO.StreamReader($ErrorBody)[0m
2025-12-19T04:56:34.9152773Z [36;1m        $Details = $Reader.ReadToEnd()[0m
2025-12-19T04:56:34.9153217Z [36;1m        Write-Host "Upload Failed. Server said: $Details"[0m
2025-12-19T04:56:34.9153639Z [36;1m        exit 1[0m
2025-12-19T04:56:34.9153920Z [36;1m    }[0m
2025-12-19T04:56:34.9154135Z [36;1m}[0m
2025-12-19T04:56:34.9184265Z shell: C:\Windows\System32\WindowsPowerShell\v1.0\powershell.EXE -command ". '{0}'"
2025-12-19T04:56:34.9184585Z ##[endgroup]
2025-12-19T04:56:35.3661879Z Target URL: https://sherwin-60052075848.development.catalystserverless.in/server/ultra_brain/process
2025-12-19T04:57:17.7586662Z You cannot call a method on a null-valued expression.
2025-12-19T04:57:17.7588421Z At D:\hoilday\rain\actions-runner-win-x64-2.329.0\_work\_temp\66585296-2ed0-4eab-b342-888888e92e61.ps1:16 char:9
2025-12-19T04:57:17.7590950Z +         $ErrorBody = $_.Exception.Response.GetResponseStream()
2025-12-19T04:57:17.7591259Z +         ~~~~~~~~~~~~~~~~~~~~~~~~~~~~~~~~~~~~~~~~~~~~~~~~~~~~~~
2025-12-19T04:57:17.7591570Z     + CategoryInfo          : InvalidOperation: (:) [], ParentContainsErrorRecordException
2025-12-19T04:57:17.7591899Z     + FullyQualifiedErrorId : InvokeMethodOnNull
2025-12-19T04:57:17.7592256Z  
2025-12-19T04:57:17.8072736Z ##[error]Process completed with exit code 1.
2025-12-19T04:57:17.8137759Z Cleaning up orphan processes
